<mxfile host="app.diagrams.net" agent="Mozilla/5.0 (Windows NT 10.0; Win64; x64) AppleWebKit/537.36 (KHTML, like Gecko) Chrome/130.0.0.0 Safari/537.36" version="24.8.4">
  <diagram name="Page-1" id="2YBvvXClWsGukQMizWep">
    <mxGraphModel dx="1668" dy="964" grid="1" gridSize="10" guides="1" tooltips="1" connect="1" arrows="1" fold="1" page="1" pageScale="1" pageWidth="850" pageHeight="1100" math="0" shadow="0">
      <root>
        <mxCell id="0" />
        <mxCell id="1" parent="0" />
        <mxCell id="oXqM3QbD9CkqxF4lTYU8-26" value="&lt;b&gt;sd&lt;/b&gt; execute command" style="shape=umlFrame;whiteSpace=wrap;html=1;pointerEvents=0;swimlaneFillColor=default;width=170;height=40;" parent="1" vertex="1">
          <mxGeometry y="80" width="740" height="910" as="geometry" />
        </mxCell>
        <mxCell id="aM9ryv3xv72pqoxQDRHE-5" value=":AddCommand" style="shape=umlLifeline;rounded=1;whiteSpace=wrap;html=1;container=0;dropTarget=0;collapsible=0;recursiveResize=0;outlineConnect=0;portConstraint=eastwest;newEdgeStyle={&quot;curved&quot;:0,&quot;rounded&quot;:0};targetShapes=umlLifeline;participant=label;points=[[0,0,0,0,5],[0,1,0,0,-5],[1,0,0,0,5],[1,1,0,0,-5]];perimeter=rectanglePerimeter;" parent="1" vertex="1">
          <mxGeometry x="170" y="200" width="105" height="710" as="geometry" />
        </mxCell>
        <mxCell id="aM9ryv3xv72pqoxQDRHE-6" value="" style="html=1;points=[];perimeter=orthogonalPerimeter;outlineConnect=0;targetShapes=umlLifeline;portConstraint=eastwest;newEdgeStyle={&quot;edgeStyle&quot;:&quot;elbowEdgeStyle&quot;,&quot;elbow&quot;:&quot;vertical&quot;,&quot;curved&quot;:0,&quot;rounded&quot;:0};" parent="aM9ryv3xv72pqoxQDRHE-5" vertex="1">
          <mxGeometry x="47.5" y="120" width="10" height="560" as="geometry" />
        </mxCell>
        <mxCell id="1ialCVmugB1Czv88WBpj-36" value="" style="html=1;points=[[0,0,0,0,5],[0,1,0,0,-5],[1,0,0,0,5],[1,1,0,0,-5]];perimeter=orthogonalPerimeter;outlineConnect=0;targetShapes=umlLifeline;portConstraint=eastwest;newEdgeStyle={&quot;curved&quot;:0,&quot;rounded&quot;:0};" parent="aM9ryv3xv72pqoxQDRHE-5" vertex="1">
          <mxGeometry x="53" y="150" width="10" height="510" as="geometry" />
        </mxCell>
        <mxCell id="1ialCVmugB1Czv88WBpj-37" value="handleCommand(...)" style="html=1;align=left;spacingLeft=2;endArrow=block;rounded=0;edgeStyle=orthogonalEdgeStyle;curved=0;rounded=0;" parent="aM9ryv3xv72pqoxQDRHE-5" target="1ialCVmugB1Czv88WBpj-36" edge="1">
          <mxGeometry relative="1" as="geometry">
            <mxPoint x="58" y="130" as="sourcePoint" />
            <Array as="points">
              <mxPoint x="88" y="130" />
              <mxPoint x="88" y="150" />
            </Array>
          </mxGeometry>
        </mxCell>
        <mxCell id="1ialCVmugB1Czv88WBpj-59" value="" style="html=1;points=[[0,0,0,0,5],[0,1,0,0,-5],[1,0,0,0,5],[1,1,0,0,-5]];perimeter=orthogonalPerimeter;outlineConnect=0;targetShapes=umlLifeline;portConstraint=eastwest;newEdgeStyle={&quot;curved&quot;:0,&quot;rounded&quot;:0};" parent="aM9ryv3xv72pqoxQDRHE-5" vertex="1">
          <mxGeometry x="57.5" y="280" width="10" height="160" as="geometry" />
        </mxCell>
        <mxCell id="1ialCVmugB1Czv88WBpj-85" value="" style="shape=umlDestroy;whiteSpace=wrap;html=1;strokeWidth=3;targetShapes=umlLifeline;strokeColor=#FF0000;" parent="aM9ryv3xv72pqoxQDRHE-5" vertex="1">
          <mxGeometry x="37.5" y="690" width="30" height="30" as="geometry" />
        </mxCell>
        <mxCell id="1ialCVmugB1Czv88WBpj-38" value="alt" style="shape=umlFrame;whiteSpace=wrap;html=1;pointerEvents=0;" parent="1" vertex="1">
          <mxGeometry x="90" y="430" width="610" height="420" as="geometry" />
        </mxCell>
        <mxCell id="1ialCVmugB1Czv88WBpj-40" value="" style="html=1;verticalAlign=bottom;endArrow=block;edgeStyle=elbowEdgeStyle;elbow=vertical;curved=0;rounded=0;" parent="1" target="aM9ryv3xv72pqoxQDRHE-6" edge="1">
          <mxGeometry x="0.3462" relative="1" as="geometry">
            <mxPoint x="30" y="320" as="sourcePoint" />
            <Array as="points">
              <mxPoint x="40" y="320" />
            </Array>
            <mxPoint x="170" y="320" as="targetPoint" />
            <mxPoint as="offset" />
          </mxGeometry>
        </mxCell>
        <mxCell id="1ialCVmugB1Czv88WBpj-41" value="execute(...)" style="edgeLabel;html=1;align=center;verticalAlign=middle;resizable=0;points=[];" parent="1ialCVmugB1Czv88WBpj-40" vertex="1" connectable="0">
          <mxGeometry x="-0.036" y="8" relative="1" as="geometry">
            <mxPoint x="-19" as="offset" />
          </mxGeometry>
        </mxCell>
        <mxCell id="1ialCVmugB1Czv88WBpj-48" value="[else]" style="text;html=1;align=center;verticalAlign=middle;resizable=0;points=[];autosize=1;strokeColor=none;fillColor=default;" parent="1" vertex="1">
          <mxGeometry x="95" y="690" width="50" height="30" as="geometry" />
        </mxCell>
        <mxCell id="1ialCVmugB1Czv88WBpj-51" value="incomes :IncomeList" style="shape=umlLifeline;rounded=1;perimeter=lifelinePerimeter;whiteSpace=wrap;html=1;container=0;dropTarget=0;collapsible=0;recursiveResize=0;outlineConnect=0;portConstraint=eastwest;newEdgeStyle={&quot;edgeStyle&quot;:&quot;elbowEdgeStyle&quot;,&quot;elbow&quot;:&quot;vertical&quot;,&quot;curved&quot;:0,&quot;rounded&quot;:0};" parent="1" vertex="1">
          <mxGeometry x="500" y="150" width="100" height="810" as="geometry" />
        </mxCell>
        <mxCell id="1ialCVmugB1Czv88WBpj-81" value="" style="html=1;points=[[0,0,0,0,5],[0,1,0,0,-5],[1,0,0,0,5],[1,1,0,0,-5]];perimeter=orthogonalPerimeter;outlineConnect=0;targetShapes=umlLifeline;portConstraint=eastwest;newEdgeStyle={&quot;curved&quot;:0,&quot;rounded&quot;:0};" parent="1ialCVmugB1Czv88WBpj-51" vertex="1">
          <mxGeometry x="45" y="580" width="10" height="30" as="geometry" />
        </mxCell>
        <mxCell id="1ialCVmugB1Czv88WBpj-53" value="spendings :SpendingList" style="shape=umlLifeline;rounded=1;perimeter=lifelinePerimeter;whiteSpace=wrap;html=1;container=0;dropTarget=0;collapsible=0;recursiveResize=0;outlineConnect=0;portConstraint=eastwest;newEdgeStyle={&quot;edgeStyle&quot;:&quot;elbowEdgeStyle&quot;,&quot;elbow&quot;:&quot;vertical&quot;,&quot;curved&quot;:0,&quot;rounded&quot;:0};" parent="1" vertex="1">
          <mxGeometry x="620" y="150" width="100" height="810" as="geometry" />
        </mxCell>
        <mxCell id="1ialCVmugB1Czv88WBpj-73" value="" style="html=1;points=[[0,0,0,0,5],[0,1,0,0,-5],[1,0,0,0,5],[1,1,0,0,-5]];perimeter=orthogonalPerimeter;outlineConnect=0;targetShapes=umlLifeline;portConstraint=eastwest;newEdgeStyle={&quot;curved&quot;:0,&quot;rounded&quot;:0};" parent="1ialCVmugB1Czv88WBpj-53" vertex="1">
          <mxGeometry x="45" y="340" width="10" height="30" as="geometry" />
        </mxCell>
        <mxCell id="oXqM3QbD9CkqxF4lTYU8-15" value="" style="html=1;points=[[0,0,0,0,5],[0,1,0,0,-5],[1,0,0,0,5],[1,1,0,0,-5]];perimeter=orthogonalPerimeter;outlineConnect=0;targetShapes=umlLifeline;portConstraint=eastwest;newEdgeStyle={&quot;curved&quot;:0,&quot;rounded&quot;:0};" parent="1ialCVmugB1Czv88WBpj-53" vertex="1">
          <mxGeometry x="45" y="440" width="10" height="30" as="geometry" />
        </mxCell>
        <mxCell id="1ialCVmugB1Czv88WBpj-43" value="[typeOfList is&amp;nbsp;&lt;div&gt;spending&lt;span style=&quot;background-color: initial;&quot;&gt;]&lt;/span&gt;&lt;/div&gt;" style="text;html=1;align=center;verticalAlign=middle;resizable=0;points=[];autosize=1;strokeColor=none;fillColor=default;shadow=0;" parent="1" vertex="1">
          <mxGeometry x="110" y="470" width="100" height="40" as="geometry" />
        </mxCell>
        <mxCell id="1ialCVmugB1Czv88WBpj-60" value="addSpending(...)" style="html=1;align=left;spacingLeft=2;endArrow=block;rounded=0;edgeStyle=orthogonalEdgeStyle;curved=0;rounded=0;" parent="1" target="1ialCVmugB1Czv88WBpj-59" edge="1">
          <mxGeometry relative="1" as="geometry">
            <mxPoint x="233" y="460" as="sourcePoint" />
            <Array as="points">
              <mxPoint x="263" y="460" />
              <mxPoint x="263" y="480" />
            </Array>
          </mxGeometry>
        </mxCell>
        <mxCell id="1ialCVmugB1Czv88WBpj-66" value="" style="html=1;points=[[0,0,0,0,5],[0,1,0,0,-5],[1,0,0,0,5],[1,1,0,0,-5]];perimeter=orthogonalPerimeter;outlineConnect=0;targetShapes=umlLifeline;portConstraint=eastwest;newEdgeStyle={&quot;curved&quot;:0,&quot;rounded&quot;:0};" parent="1" vertex="1">
          <mxGeometry x="228" y="725" width="10" height="40" as="geometry" />
        </mxCell>
        <mxCell id="1ialCVmugB1Czv88WBpj-67" value="addIncome(...)" style="html=1;align=left;spacingLeft=2;endArrow=block;rounded=0;edgeStyle=orthogonalEdgeStyle;curved=0;rounded=0;" parent="1" target="1ialCVmugB1Czv88WBpj-66" edge="1">
          <mxGeometry x="0.0051" relative="1" as="geometry">
            <mxPoint x="233" y="705" as="sourcePoint" />
            <Array as="points">
              <mxPoint x="263" y="705" />
              <mxPoint x="263" y="725" />
            </Array>
            <mxPoint as="offset" />
          </mxGeometry>
        </mxCell>
        <mxCell id="1ialCVmugB1Czv88WBpj-75" value="" style="html=1;verticalAlign=bottom;endArrow=block;dashed=1;endSize=8;curved=0;rounded=0;exitX=0;exitY=1;exitDx=0;exitDy=-5;endFill=1;strokeWidth=1;" parent="1" edge="1">
          <mxGeometry relative="1" as="geometry">
            <mxPoint x="238" y="520" as="targetPoint" />
            <mxPoint x="665.0000000000002" y="520" as="sourcePoint" />
          </mxGeometry>
        </mxCell>
        <mxCell id="VLh5bKRLz8x9KIW3gmQL-2" value="return" style="edgeLabel;html=1;align=center;verticalAlign=middle;resizable=0;points=[];" parent="1ialCVmugB1Czv88WBpj-75" vertex="1" connectable="0">
          <mxGeometry x="0.4992" relative="1" as="geometry">
            <mxPoint x="115" y="-10" as="offset" />
          </mxGeometry>
        </mxCell>
        <mxCell id="1ialCVmugB1Czv88WBpj-74" value="add(...)" style="html=1;verticalAlign=bottom;endArrow=block;curved=0;rounded=0;" parent="1" source="1ialCVmugB1Czv88WBpj-59" target="1ialCVmugB1Czv88WBpj-73" edge="1">
          <mxGeometry x="-0.0443" relative="1" as="geometry">
            <mxPoint x="460" y="495" as="sourcePoint" />
            <mxPoint x="530" y="490" as="targetPoint" />
            <Array as="points">
              <mxPoint x="390" y="490" />
            </Array>
            <mxPoint as="offset" />
          </mxGeometry>
        </mxCell>
        <mxCell id="1ialCVmugB1Czv88WBpj-82" value="add(...)" style="html=1;verticalAlign=bottom;endArrow=block;curved=0;rounded=0;" parent="1" target="1ialCVmugB1Czv88WBpj-81" edge="1">
          <mxGeometry x="-0.0098" relative="1" as="geometry">
            <mxPoint x="238" y="730" as="sourcePoint" />
            <Array as="points">
              <mxPoint x="310" y="730" />
            </Array>
            <mxPoint as="offset" />
          </mxGeometry>
        </mxCell>
        <mxCell id="1ialCVmugB1Czv88WBpj-83" value="" style="html=1;verticalAlign=bottom;endArrow=block;dashed=1;endSize=8;curved=0;rounded=0;exitX=0;exitY=1;exitDx=0;exitDy=-5;entryX=1;entryY=1;entryDx=0;entryDy=-5;entryPerimeter=0;endFill=1;" parent="1" edge="1">
          <mxGeometry relative="1" as="geometry">
            <mxPoint x="238" y="760" as="targetPoint" />
            <mxPoint x="545" y="760" as="sourcePoint" />
          </mxGeometry>
        </mxCell>
        <mxCell id="1ialCVmugB1Czv88WBpj-84" value="" style="endArrow=none;dashed=1;html=1;rounded=0;exitX=-0.001;exitY=0.532;exitDx=0;exitDy=0;exitPerimeter=0;" parent="1" edge="1">
          <mxGeometry width="50" height="50" relative="1" as="geometry">
            <mxPoint x="89.31999999999994" y="670.0000000000001" as="sourcePoint" />
            <mxPoint x="700" y="670" as="targetPoint" />
          </mxGeometry>
        </mxCell>
        <mxCell id="1ialCVmugB1Czv88WBpj-89" value="" style="html=1;align=left;spacingLeft=2;endArrow=block;rounded=0;edgeStyle=orthogonalEdgeStyle;curved=0;rounded=0;dashed=1;" parent="1" edge="1">
          <mxGeometry relative="1" as="geometry">
            <mxPoint x="240" y="765" as="sourcePoint" />
            <Array as="points">
              <mxPoint x="270" y="765" />
              <mxPoint x="270" y="775" />
            </Array>
            <mxPoint x="233" y="775" as="targetPoint" />
          </mxGeometry>
        </mxCell>
        <mxCell id="1ialCVmugB1Czv88WBpj-90" value="" style="html=1;align=left;spacingLeft=2;endArrow=block;rounded=0;edgeStyle=orthogonalEdgeStyle;curved=0;rounded=0;dashed=1;" parent="1" edge="1">
          <mxGeometry relative="1" as="geometry">
            <mxPoint x="234.5" y="860" as="sourcePoint" />
            <Array as="points">
              <mxPoint x="264.5" y="860.03" />
              <mxPoint x="264.5" y="870.03" />
            </Array>
            <mxPoint x="228" y="870.03" as="targetPoint" />
          </mxGeometry>
        </mxCell>
        <mxCell id="1ialCVmugB1Czv88WBpj-91" value="" style="html=1;align=left;spacingLeft=2;endArrow=block;rounded=0;edgeStyle=orthogonalEdgeStyle;curved=0;rounded=0;dashed=1;" parent="1" edge="1">
          <mxGeometry relative="1" as="geometry">
            <mxPoint x="233" y="640" as="sourcePoint" />
            <Array as="points">
              <mxPoint x="263" y="640" />
              <mxPoint x="263" y="660" />
            </Array>
            <mxPoint x="233" y="660" as="targetPoint" />
          </mxGeometry>
        </mxCell>
        <mxCell id="VLh5bKRLz8x9KIW3gmQL-6" value="return" style="edgeLabel;html=1;align=center;verticalAlign=middle;resizable=0;points=[];" parent="1ialCVmugB1Czv88WBpj-91" vertex="1" connectable="0">
          <mxGeometry x="-0.0329" y="1" relative="1" as="geometry">
            <mxPoint x="22" y="2" as="offset" />
          </mxGeometry>
        </mxCell>
        <mxCell id="VLh5bKRLz8x9KIW3gmQL-7" value="return" style="edgeLabel;html=1;align=center;verticalAlign=middle;resizable=0;points=[];" parent="1" vertex="1" connectable="0">
          <mxGeometry x="307.5" y="769.9957006802753" as="geometry">
            <mxPoint x="-19" y="1" as="offset" />
          </mxGeometry>
        </mxCell>
        <mxCell id="VLh5bKRLz8x9KIW3gmQL-8" value="return" style="edgeLabel;html=1;align=center;verticalAlign=middle;resizable=0;points=[];" parent="1" vertex="1" connectable="0">
          <mxGeometry x="290" y="749.9957006802753" as="geometry">
            <mxPoint x="102" y="3" as="offset" />
          </mxGeometry>
        </mxCell>
        <mxCell id="VLh5bKRLz8x9KIW3gmQL-9" value="return" style="edgeLabel;html=1;align=center;verticalAlign=middle;resizable=0;points=[];" parent="1" vertex="1" connectable="0">
          <mxGeometry x="290" y="859.9957006802753" as="geometry" />
        </mxCell>
        <mxCell id="oXqM3QbD9CkqxF4lTYU8-1" value="" style="endArrow=none;dashed=1;html=1;rounded=0;" parent="1" edge="1">
          <mxGeometry width="50" height="50" relative="1" as="geometry">
            <mxPoint x="30" y="960" as="sourcePoint" />
            <mxPoint x="30" y="140" as="targetPoint" />
          </mxGeometry>
        </mxCell>
        <mxCell id="oXqM3QbD9CkqxF4lTYU8-2" value="&lt;meta charset=&quot;utf-8&quot;&gt;&lt;span style=&quot;color: rgb(0, 0, 0); font-family: Helvetica; font-size: 12px; font-style: normal; font-variant-ligatures: normal; font-variant-caps: normal; font-weight: 400; letter-spacing: normal; orphans: 2; text-align: center; text-indent: 0px; text-transform: none; widows: 2; word-spacing: 0px; -webkit-text-stroke-width: 0px; white-space: nowrap; background-color: rgb(251, 251, 251); text-decoration-thickness: initial; text-decoration-style: initial; text-decoration-color: initial; display: inline !important; float: none;&quot;&gt;Verify user input&lt;/span&gt;" style="shape=note;whiteSpace=wrap;html=1;backgroundOutline=1;darkOpacity=0.05;flipV=1;size=15;" parent="1" vertex="1">
          <mxGeometry x="290" y="360" width="113" height="40" as="geometry" />
        </mxCell>
        <mxCell id="oXqM3QbD9CkqxF4lTYU8-9" value="" style="group" parent="1" vertex="1" connectable="0">
          <mxGeometry x="190" y="530" width="259.5" height="30" as="geometry" />
        </mxCell>
        <mxCell id="oXqM3QbD9CkqxF4lTYU8-4" value="ref" style="shape=umlFrame;whiteSpace=wrap;html=1;pointerEvents=0;fillColor=default;swimlaneFillColor=default;width=40;height=20;" parent="oXqM3QbD9CkqxF4lTYU8-9" vertex="1">
          <mxGeometry width="259.5" height="30" as="geometry" />
        </mxCell>
        <mxCell id="oXqM3QbD9CkqxF4lTYU8-8" value="recurrence backlogging" style="text;html=1;align=center;verticalAlign=middle;whiteSpace=wrap;rounded=0;" parent="oXqM3QbD9CkqxF4lTYU8-9" vertex="1">
          <mxGeometry x="54.62" width="150.25" height="30" as="geometry" />
        </mxCell>
        <mxCell id="oXqM3QbD9CkqxF4lTYU8-10" value="" style="group" parent="1" vertex="1" connectable="0">
          <mxGeometry x="190" y="790" width="259.5" height="30" as="geometry" />
        </mxCell>
        <mxCell id="oXqM3QbD9CkqxF4lTYU8-11" value="ref" style="shape=umlFrame;whiteSpace=wrap;html=1;pointerEvents=0;fillColor=default;swimlaneFillColor=default;width=40;height=20;" parent="oXqM3QbD9CkqxF4lTYU8-10" vertex="1">
          <mxGeometry width="259.5" height="30" as="geometry" />
        </mxCell>
        <mxCell id="oXqM3QbD9CkqxF4lTYU8-12" value="recurrence backlogging" style="text;html=1;align=center;verticalAlign=middle;whiteSpace=wrap;rounded=0;" parent="oXqM3QbD9CkqxF4lTYU8-10" vertex="1">
          <mxGeometry x="54.620000000000005" width="150.25" height="30" as="geometry" />
        </mxCell>
        <mxCell id="oXqM3QbD9CkqxF4lTYU8-14" value="checkOverspend()" style="html=1;verticalAlign=bottom;endArrow=block;curved=0;rounded=0;" parent="1" target="oXqM3QbD9CkqxF4lTYU8-15" edge="1">
          <mxGeometry x="-0.0431" relative="1" as="geometry">
            <mxPoint x="238" y="590" as="sourcePoint" />
            <mxPoint x="745" y="590" as="targetPoint" />
            <Array as="points">
              <mxPoint x="390" y="590" />
            </Array>
            <mxPoint as="offset" />
          </mxGeometry>
        </mxCell>
        <mxCell id="oXqM3QbD9CkqxF4lTYU8-17" value="" style="html=1;verticalAlign=bottom;endArrow=block;dashed=1;endSize=8;curved=0;rounded=0;endFill=1;strokeWidth=1;" parent="1" source="oXqM3QbD9CkqxF4lTYU8-15" edge="1">
          <mxGeometry relative="1" as="geometry">
            <mxPoint x="238" y="620" as="targetPoint" />
            <mxPoint x="745" y="620" as="sourcePoint" />
          </mxGeometry>
        </mxCell>
        <mxCell id="oXqM3QbD9CkqxF4lTYU8-18" value="return" style="edgeLabel;html=1;align=center;verticalAlign=middle;resizable=0;points=[];" parent="oXqM3QbD9CkqxF4lTYU8-17" vertex="1" connectable="0">
          <mxGeometry x="0.4992" relative="1" as="geometry">
            <mxPoint x="115" y="-10" as="offset" />
          </mxGeometry>
        </mxCell>
        <mxCell id="oXqM3QbD9CkqxF4lTYU8-20" value="" style="html=1;verticalAlign=bottom;endArrow=block;dashed=1;endSize=8;edgeStyle=elbowEdgeStyle;elbow=vertical;curved=0;rounded=0;endFill=1;" parent="1" edge="1">
          <mxGeometry x="0.0031" relative="1" as="geometry">
            <mxPoint x="30" y="880" as="targetPoint" />
            <Array as="points">
              <mxPoint x="136" y="880" />
            </Array>
            <mxPoint x="214" y="880" as="sourcePoint" />
            <mxPoint as="offset" />
          </mxGeometry>
        </mxCell>
        <mxCell id="oXqM3QbD9CkqxF4lTYU8-22" value="return" style="edgeLabel;html=1;align=center;verticalAlign=middle;resizable=0;points=[];" parent="oXqM3QbD9CkqxF4lTYU8-20" vertex="1" connectable="0">
          <mxGeometry x="0.3673" y="2" relative="1" as="geometry">
            <mxPoint x="35" y="-12" as="offset" />
          </mxGeometry>
        </mxCell>
        <mxCell id="frGVoTqQT1sX69Y6jLVZ-2" value="" style="endArrow=none;dashed=1;html=1;rounded=0;" edge="1" parent="1" source="1ialCVmugB1Czv88WBpj-36">
          <mxGeometry width="50" height="50" relative="1" as="geometry">
            <mxPoint x="240" y="430" as="sourcePoint" />
            <mxPoint x="290" y="380" as="targetPoint" />
          </mxGeometry>
        </mxCell>
      </root>
    </mxGraphModel>
  </diagram>
</mxfile>
